<svg width="570" height="314" viewBox="0 0 570 314" fill="none" xmlns="http://www.w3.org/2000/svg">
<rect x="202" y="120" width="15" height="15" fill="#88FFBF"/>
<rect x="217" y="120" width="15" height="15" fill="#88FFBF"/>
<rect x="232" y="120" width="15" height="15" fill="#88FFBF"/>
<rect x="247" y="120" width="15" height="15" fill="#88FFBF"/>
<rect x="262" y="120" width="15" height="15" fill="#88FFBF"/>
<rect x="277" y="120" width="15" height="15" fill="#88FFBF"/>
<rect x="292" y="120" width="15" height="15" fill="#88FFBF"/>
<rect x="307" y="120" width="15" height="15" fill="#88FFBF"/>
<rect x="322" y="120" width="15" height="15" fill="#88FFBF"/>
<rect x="337" y="120" width="15" height="15" fill="#88FFBF"/>
<rect x="352" y="120" width="15" height="15" fill="#88FFBF"/>
<rect x="367" y="120" width="15" height="15" fill="#88FFBF"/>
<rect x="382" y="120" width="15" height="15" fill="#88FFBF"/>
<rect x="397" y="120" width="15" height="15" fill="#88FFBF"/>
<rect x="427" y="120" width="15" height="15" fill="#88FFBF"/>
<rect x="412" y="120" width="15" height="15" fill="#88FFBF"/>
<rect x="442" y="120" width="15" height="15" fill="#88FFBF"/>
<rect x="457" y="105" width="15" height="15" fill="#88FFBF"/>
<rect x="472" y="90" width="15" height="15" fill="#88FFBF"/>
<rect x="472" y="75" width="15" height="15" fill="#88FFBF"/>
<rect x="472" y="60" width="15" height="15" fill="#88FFBF"/>
<rect x="472" y="45" width="15" height="15" fill="#88FFBF"/>
<rect x="472" y="30" width="15" height="15" fill="#88FFBF"/>
<rect x="457" y="15" width="15" height="15" fill="#88FFBF"/>
<rect x="112" y="30" width="15" height="15" fill="#88FFBF"/>
<path d="M112 45H127V60H112V45Z" fill="#88FFBF"/>
<path d="M112 60H127V75H112V60Z" fill="#88FFBF"/>
<path d="M112 75H127V90H112V75Z" fill="#88FFBF"/>
<path d="M112 90H127V105H112V90Z" fill="#88FFBF"/>
<rect x="127" y="15" width="15" height="15" fill="#88FFBF"/>
<path d="M142 0H157V15H142V0Z" fill="#88FFBF"/>
<rect x="157" width="15" height="15" fill="#88FFBF"/>
<rect x="157" y="120" width="15" height="15" fill="#88FFBF"/>
<rect x="172" y="120" width="15" height="15" fill="#88FFBF"/>
<rect x="142" y="120" width="15" height="15" fill="#88FFBF"/>
<rect x="127" y="105" width="15" height="15" fill="#88FFBF"/>
<rect x="187" y="120" width="15" height="15" fill="#88FFBF"/>
<rect x="202" width="15" height="15" fill="#88FFBF"/>
<rect x="217" width="15" height="15" fill="#88FFBF"/>
<rect x="232" width="15" height="15" fill="#88FFBF"/>
<rect x="247" width="15" height="15" fill="#88FFBF"/>
<rect x="262" width="15" height="15" fill="#88FFBF"/>
<rect x="277" width="15" height="15" fill="#88FFBF"/>
<rect x="292" width="15" height="15" fill="#88FFBF"/>
<rect x="307" width="15" height="15" fill="#88FFBF"/>
<rect x="322" width="15" height="15" fill="#88FFBF"/>
<rect x="337" width="15" height="15" fill="#88FFBF"/>
<rect x="352" width="15" height="15" fill="#88FFBF"/>
<rect x="367" width="15" height="15" fill="#88FFBF"/>
<rect x="382" width="15" height="15" fill="#88FFBF"/>
<rect x="397" width="15" height="15" fill="#88FFBF"/>
<rect x="412" width="15" height="15" fill="#88FFBF"/>
<rect x="427" width="15" height="15" fill="#88FFBF"/>
<rect x="442" width="15" height="15" fill="#88FFBF"/>
<rect x="187" width="15" height="15" fill="#88FFBF"/>
<rect x="172" width="15" height="15" fill="#88FFBF"/>
<rect x="172" y="30" width="15" height="15" fill="black"/>
<rect x="187" y="30" width="15" height="15" fill="black"/>
<rect x="217" y="30" width="15" height="15" fill="black"/>
<rect x="232" y="30" width="15" height="15" fill="black"/>
<rect x="232" y="45" width="15" height="15" fill="black"/>
<rect x="232" y="60" width="15" height="15" fill="black"/>
<rect x="232" y="75" width="15" height="15" fill="black"/>
<rect x="232" y="90" width="15" height="15" fill="black"/>
<rect x="277" y="75" width="15" height="15" fill="black"/>
<rect x="277" y="60" width="15" height="15" fill="black"/>
<rect x="277" y="45" width="15" height="15" fill="black"/>
<rect x="307" y="30" width="15" height="15" fill="black"/>
<rect x="307" y="30" width="15" height="15" fill="black"/>
<rect x="292" y="30" width="15" height="15" fill="black"/>
<rect x="307" y="45" width="15" height="15" fill="black"/>
<rect x="307" y="60" width="15" height="15" fill="black"/>
<rect x="307" y="75" width="15" height="15" fill="black"/>
<rect x="307" y="90" width="15" height="15" fill="black"/>
<path d="M337 30H352V45H337V30Z" fill="black"/>
<path d="M337 45H352V60H337V45Z" fill="black"/>
<path d="M337 60H352V75H337V60Z" fill="black"/>
<path d="M337 75H352V90H337V75Z" fill="black"/>
<path d="M337 90H352V105H337V90Z" fill="black"/>
<path d="M352 30H367V45H352V30Z" fill="black"/>
<path d="M367 45H382V60H367V45Z" fill="black"/>
<path d="M367 45H382V60H367V45Z" fill="black"/>
<path d="M367 30H382V45H367V30Z" fill="black"/>
<path d="M352 75H367V90H352V75Z" fill="black"/>
<path d="M367 60H382V75H367V60Z" fill="black"/>
<path d="M367 90H382V105H367V90Z" fill="black"/>
<path d="M397 30H412V45H397V30Z" fill="black"/>
<path d="M412 30H427V45H412V30Z" fill="black"/>
<path d="M412 45H427V60H412V45Z" fill="black"/>
<path d="M412 60H427V75H412V60Z" fill="black"/>
<path d="M412 75H427V90H412V75Z" fill="black"/>
<path d="M412 90H427V105H412V90Z" fill="black"/>
<path d="M427 30H442V45H427V30Z" fill="black"/>
<rect x="292" y="75" width="15" height="15" fill="black"/>
<rect x="247" y="30" width="15" height="15" fill="black"/>
<rect x="157" y="30" width="15" height="15" fill="black"/>
<rect x="157" y="45" width="15" height="15" fill="black"/>
<rect x="157" y="60" width="15" height="15" fill="black"/>
<rect x="172" y="60" width="15" height="15" fill="black"/>
<rect x="187" y="60" width="15" height="15" fill="black"/>
<path d="M187 75H202V90H187V75Z" fill="black"/>
<rect x="187" y="90" width="15" height="15" fill="black"/>
<rect x="172" y="90" width="15" height="15" fill="black"/>
<rect x="157" y="90" width="15" height="15" fill="black"/>
<rect x="172" y="45" width="15" height="15" fill="#00FF75"/>
<rect x="187" y="45" width="15" height="15" fill="#00FF75"/>
<rect x="292" y="45" width="15" height="15" fill="#00FF75"/>
<rect x="292" y="60" width="15" height="15" fill="#00FF75"/>
<rect x="292" y="90" width="15" height="15" fill="#00FF75"/>
<rect x="142" y="15" width="15" height="15" fill="#00FF75"/>
<rect x="142" y="105" width="15" height="15" fill="#00FF75"/>
<rect x="142" y="90" width="15" height="15" fill="#00FF75"/>
<rect x="142" y="75" width="15" height="15" fill="#00FF75"/>
<rect x="157" y="75" width="15" height="15" fill="#00FF75"/>
<rect x="142" y="60" width="15" height="15" fill="#00FF75"/>
<rect x="142" y="45" width="15" height="15" fill="#00FF75"/>
<rect x="142" y="30" width="15" height="15" fill="#00FF75"/>
<rect x="127" y="90" width="15" height="15" fill="#00FF75"/>
<rect x="127" y="75" width="15" height="15" fill="#00FF75"/>
<rect x="127" y="60" width="15" height="15" fill="#00FF75"/>
<rect x="127" y="45" width="15" height="15" fill="#00FF75"/>
<rect x="127" y="30" width="15" height="15" fill="#00FF75"/>
<rect x="442" y="90" width="15" height="15" fill="#00FF75"/>
<rect x="442" y="75" width="15" height="15" fill="#00FF75"/>
<rect x="442" y="60" width="15" height="15" fill="#00FF75"/>
<rect x="442" y="45" width="15" height="15" fill="#00FF75"/>
<rect x="427" y="90" width="15" height="15" fill="#00FF75"/>
<rect x="412" y="105" width="15" height="15" fill="#00FF75"/>
<rect x="427" y="75" width="15" height="15" fill="#00FF75"/>
<rect x="427" y="60" width="15" height="15" fill="#00FF75"/>
<rect x="427" y="45" width="15" height="15" fill="#00FF75"/>
<rect x="397" y="90" width="15" height="15" fill="#00FF75"/>
<rect x="397" y="75" width="15" height="15" fill="#00FF75"/>
<rect x="397" y="60" width="15" height="15" fill="#00FF75"/>
<rect x="397" y="45" width="15" height="15" fill="#00FF75"/>
<rect x="247" y="90" width="15" height="15" fill="#00FF75"/>
<rect x="247" y="75" width="15" height="15" fill="#00FF75"/>
<rect x="247" y="60" width="15" height="15" fill="#00FF75"/>
<rect x="247" y="45" width="15" height="15" fill="#00FF75"/>
<rect x="217" y="90" width="15" height="15" fill="#00FF75"/>
<rect x="217" y="75" width="15" height="15" fill="#00FF75"/>
<rect x="217" y="60" width="15" height="15" fill="#00FF75"/>
<rect x="217" y="45" width="15" height="15" fill="#00FF75"/>
<rect x="442" y="30" width="15" height="15" fill="#00FF75"/>
<rect x="202" y="90" width="15" height="15" fill="#00FF75"/>
<rect x="202" y="75" width="15" height="15" fill="#00FF75"/>
<rect x="202" y="60" width="15" height="15" fill="#00FF75"/>
<rect x="202" y="45" width="15" height="15" fill="#00FF75"/>
<rect x="202" y="30" width="15" height="15" fill="#00FF75"/>
<rect x="262" y="90" width="15" height="15" fill="#00FF75"/>
<rect x="262" y="75" width="15" height="15" fill="#00FF75"/>
<rect x="262" y="60" width="15" height="15" fill="#00FF75"/>
<rect x="262" y="45" width="15" height="15" fill="#00FF75"/>
<rect x="262" y="30" width="15" height="15" fill="#00FF75"/>
<rect x="322" y="90" width="15" height="15" fill="#00FF75"/>
<rect x="322" y="75" width="15" height="15" fill="#00FF75"/>
<rect x="322" y="60" width="15" height="15" fill="#00FF75"/>
<rect x="322" y="45" width="15" height="15" fill="#00FF75"/>
<rect x="322" y="30" width="15" height="15" fill="#00FF75"/>
<rect x="352" y="45" width="15" height="15" fill="#00FF75"/>
<rect x="352" y="60" width="15" height="15" fill="#00FF75"/>
<rect x="352" y="90" width="15" height="15" fill="#00FF75"/>
<rect x="382" y="90" width="15" height="15" fill="#00FF75"/>
<rect x="367" y="75" width="15" height="15" fill="#00FF75"/>
<rect x="382" y="60" width="15" height="15" fill="#00FF75"/>
<rect x="382" y="75" width="15" height="15" fill="#00FF75"/>
<rect x="382" y="45" width="15" height="15" fill="#00FF75"/>
<rect x="382" y="30" width="15" height="15" fill="#00FF75"/>
<rect x="457" y="90" width="15" height="15" fill="#00FF75"/>
<rect x="457" y="75" width="15" height="15" fill="#00FF75"/>
<rect x="457" y="60" width="15" height="15" fill="#00FF75"/>
<rect x="457" y="45" width="15" height="15" fill="#00FF75"/>
<rect x="457" y="30" width="15" height="15" fill="#00FF75"/>
<rect x="172" y="75" width="15" height="15" fill="#00FF75"/>
<rect x="157" y="15" width="15" height="15" fill="#00FF75"/>
<rect x="172" y="15" width="15" height="15" fill="#00FF75"/>
<rect x="187" y="15" width="15" height="15" fill="#00FF75"/>
<rect x="202" y="15" width="15" height="15" fill="#00FF75"/>
<rect x="217" y="15" width="15" height="15" fill="#00FF75"/>
<rect x="232" y="15" width="15" height="15" fill="#00FF75"/>
<rect x="247" y="15" width="15" height="15" fill="#00FF75"/>
<rect x="262" y="15" width="15" height="15" fill="#00FF75"/>
<rect x="277" y="15" width="15" height="15" fill="#00FF75"/>
<rect x="292" y="15" width="15" height="15" fill="#00FF75"/>
<rect x="277" y="30" width="15" height="15" fill="#00FF75"/>
<rect x="307" y="15" width="15" height="15" fill="#00FF75"/>
<rect x="307" y="15" width="15" height="15" fill="#00FF75"/>
<rect x="322" y="15" width="15" height="15" fill="#00FF75"/>
<rect x="337" y="15" width="15" height="15" fill="#00FF75"/>
<rect x="352" y="15" width="15" height="15" fill="#00FF75"/>
<rect x="367" y="15" width="15" height="15" fill="#00FF75"/>
<rect x="382" y="15" width="15" height="15" fill="#00FF75"/>
<rect x="397" y="15" width="15" height="15" fill="#00FF75"/>
<rect x="412" y="15" width="15" height="15" fill="#00FF75"/>
<rect x="427" y="15" width="15" height="15" fill="#00FF75"/>
<rect x="442" y="15" width="15" height="15" fill="#00FF75"/>
<rect x="157" y="105" width="15" height="15" fill="#00FF75"/>
<rect x="172" y="105" width="15" height="15" fill="#00FF75"/>
<rect x="187" y="105" width="15" height="15" fill="#00FF75"/>
<rect x="202" y="105" width="15" height="15" fill="#00FF75"/>
<rect x="217" y="105" width="15" height="15" fill="#00FF75"/>
<rect x="232" y="105" width="15" height="15" fill="#00FF75"/>
<rect x="247" y="105" width="15" height="15" fill="#00FF75"/>
<rect x="262" y="105" width="15" height="15" fill="#00FF75"/>
<rect x="277" y="105" width="15" height="15" fill="#00FF75"/>
<rect x="292" y="105" width="15" height="15" fill="#00FF75"/>
<rect x="307" y="105" width="15" height="15" fill="#00FF75"/>
<rect x="307" y="105" width="15" height="15" fill="#00FF75"/>
<rect x="322" y="105" width="15" height="15" fill="#00FF75"/>
<rect x="337" y="105" width="15" height="15" fill="#00FF75"/>
<rect x="352" y="105" width="15" height="15" fill="#00FF75"/>
<rect x="367" y="105" width="15" height="15" fill="#00FF75"/>
<rect x="382" y="105" width="15" height="15" fill="#00FF75"/>
<rect x="397" y="105" width="15" height="15" fill="#00FF75"/>
<rect x="427" y="105" width="15" height="15" fill="#00FF75"/>
<rect x="442" y="105" width="15" height="15" fill="#00FF75"/>
<rect x="112" y="16" width="15" height="15" fill="#009042"/>
<rect x="97" y="31" width="15" height="15" fill="#009042"/>
<rect x="97" y="46" width="15" height="15" fill="#009042"/>
<rect x="97" y="61" width="15" height="15" fill="#009042"/>
<rect x="97" y="76" width="15" height="15" fill="#009042"/>
<rect x="97" y="90" width="15" height="15" fill="#009042"/>
<rect x="112" y="105" width="15" height="15" fill="#009042"/>
<rect x="127" y="120" width="15" height="15" fill="#009042"/>
<rect x="142" y="135" width="15" height="15" fill="#009042"/>
<rect x="127" y="135" width="15" height="15" fill="#009042"/>
<rect x="112" y="120" width="15" height="15" fill="#009042"/>
<rect x="97" y="105" width="15" height="15" fill="#009042"/>
<rect x="157" y="135" width="15" height="15" fill="#009042"/>
<rect x="172" y="135" width="15" height="15" fill="#009042"/>
<rect x="187" y="135" width="15" height="15" fill="#009042"/>
<rect x="202" y="135" width="15" height="15" fill="#009042"/>
<rect x="217" y="135" width="15" height="15" fill="#009042"/>
<rect x="232" y="135" width="15" height="15" fill="#009042"/>
<rect x="247" y="135" width="15" height="15" fill="#009042"/>
<rect x="262" y="135" width="15" height="15" fill="#009042"/>
<rect x="277" y="135" width="15" height="15" fill="#009042"/>
<rect x="292" y="135" width="15" height="15" fill="#009042"/>
<rect x="307" y="135" width="15" height="15" fill="#009042"/>
<rect x="322" y="135" width="15" height="15" fill="#009042"/>
<rect x="337" y="135" width="15" height="15" fill="#009042"/>
<rect x="352" y="135" width="15" height="15" fill="#009042"/>
<rect x="367" y="135" width="15" height="15" fill="#009042"/>
<rect x="382" y="135" width="15" height="15" fill="#009042"/>
<rect x="397" y="135" width="15" height="15" fill="#009042"/>
<rect x="427" y="135" width="15" height="15" fill="#009042"/>
<rect x="412" y="135" width="15" height="15" fill="#009042"/>
<rect x="442" y="135" width="15" height="15" fill="#009042"/>
<rect x="457" y="120" width="15" height="15" fill="#009042"/>
<rect x="472" y="105" width="15" height="15" fill="#009042"/>
<rect x="127" y="1" width="15" height="15" fill="#009042"/>
<rect x="277" y="90" width="15" height="15" fill="black"/>
<rect x="277" y="30" width="15" height="15" fill="black"/>
<rect x="60" y="254" width="15" height="15" fill="#FF0004"/>
<rect x="75" y="254" width="15" height="15" fill="#FF0004"/>
<rect x="90" y="254" width="15" height="15" fill="#FF0004"/>
<rect x="90" y="239" width="15" height="15" fill="#FF0004"/>
<rect x="90" y="224" width="15" height="15" fill="#FF0004"/>
<rect x="75" y="195" width="15" height="15" fill="#CE0003"/>
<rect x="60" y="180" width="15" height="15" fill="#CE0003"/>
<rect x="45" y="180" width="15" height="15" fill="#CE0003"/>
<rect x="30" y="194" width="15" height="15" fill="#CE0003"/>
<rect x="15" y="210" width="15" height="15" fill="#CE0003"/>
<rect x="15" y="224" width="15" height="15" fill="#CE0003"/>
<rect x="30" y="239" width="15" height="15" fill="#CE0003"/>
<rect x="45" y="254" width="15" height="15" fill="#CE0003"/>
<rect x="60" y="269" width="15" height="15" fill="#CE0003"/>
<rect x="75" y="284" width="15" height="15" fill="#CE0003"/>
<rect x="90" y="299" width="15" height="15" fill="#CE0003"/>
<rect x="105" y="284" width="15" height="15" fill="#CE0003"/>
<rect x="120" y="269" width="15" height="15" fill="#CE0003"/>
<rect x="135" y="254" width="15" height="15" fill="#CE0003"/>
<rect x="150" y="239" width="15" height="15" fill="#CE0003"/>
<rect x="165" y="224" width="15" height="15" fill="#CE0003"/>
<rect x="165" y="210" width="15" height="15" fill="#CE0003"/>
<rect x="150" y="194" width="15" height="15" fill="#CE0003"/>
<rect x="135" y="179" width="15" height="15" fill="#CE0003"/>
<rect x="120" y="179" width="15" height="15" fill="#CE0003"/>
<rect x="105" y="194" width="15" height="15" fill="#CE0003"/>
<rect x="90" y="210" width="15" height="15" fill="#CE0003"/>
<rect x="60" y="195" width="15" height="15" fill="#FF0004"/>
<rect x="45" y="195" width="15" height="15" fill="#FF0004"/>
<rect x="30" y="209" width="15" height="15" fill="#FF0004"/>
<rect x="60" y="209" width="15" height="15" fill="#E2E2E2"/>
<rect x="45" y="224" width="15" height="15" fill="#E2E2E2"/>
<rect x="45" y="209" width="15" height="15" fill="#FF0004"/>
<rect x="75" y="210" width="15" height="15" fill="#FF0004"/>
<rect x="75" y="224" width="15" height="15" fill="#FF0004"/>
<rect x="75" y="239" width="15" height="15" fill="#FF0004"/>
<rect x="60" y="239" width="15" height="15" fill="#FF0004"/>
<rect x="60" y="224" width="15" height="15" fill="#FF0004"/>
<rect x="45" y="239" width="15" height="15" fill="#FF0004"/>
<rect x="30" y="224" width="15" height="15" fill="#FF0004"/>
<rect x="90" y="284" width="15" height="15" fill="#FF0004"/>
<rect x="105" y="269" width="15" height="15" fill="#FF0004"/>
<rect x="90" y="269" width="15" height="15" fill="#FF0004"/>
<rect x="75" y="269" width="15" height="15" fill="#FF0004"/>
<rect x="120" y="254" width="15" height="15" fill="#FF0004"/>
<rect x="120" y="239" width="15" height="15" fill="#FF0004"/>
<rect x="120" y="224" width="15" height="15" fill="#FF0004"/>
<rect x="105" y="209" width="15" height="15" fill="#FF0004"/>
<rect x="105" y="224" width="15" height="15" fill="#FF0004"/>
<rect x="105" y="239" width="15" height="15" fill="#FF0004"/>
<rect x="105" y="254" width="15" height="15" fill="#FF0004"/>
<rect x="120" y="209" width="15" height="15" fill="#FF0004"/>
<rect x="120" y="194" width="15" height="15" fill="#FF0004"/>
<rect x="135" y="194" width="15" height="15" fill="#FF0004"/>
<rect x="135" y="209" width="15" height="15" fill="#FF0004"/>
<rect x="135" y="224" width="15" height="15" fill="#FF0004"/>
<rect x="135" y="239" width="15" height="15" fill="#FF0004"/>
<rect x="150" y="209" width="15" height="15" fill="#FF0004"/>
<rect x="150" y="224" width="15" height="15" fill="#FF0004"/>
<rect x="75" y="299" width="15" height="15" fill="white"/>
<rect x="60" y="284" width="15" height="15" fill="white"/>
<rect x="90" y="195" width="15" height="15" fill="white"/>
<rect x="45" y="269" width="15" height="15" fill="white"/>
<rect x="30" y="254" width="15" height="15" fill="white"/>
<rect x="15" y="239" width="15" height="15" fill="white"/>
<rect y="224" width="15" height="15" fill="white"/>
<rect y="210" width="15" height="15" fill="white"/>
<rect x="15" y="195" width="15" height="15" fill="white"/>
<rect x="30" y="180" width="15" height="15" fill="white"/>
<rect x="105" y="179" width="15" height="15" fill="white"/>
<rect x="255" y="254" width="15" height="15" fill="#FF0004"/>
<rect x="270" y="254" width="15" height="15" fill="#FF0004"/>
<rect x="285" y="254" width="15" height="15" fill="#FF0004"/>
<rect x="285" y="239" width="15" height="15" fill="#FF0004"/>
<rect x="285" y="224" width="15" height="15" fill="#FF0004"/>
<rect x="270" y="195" width="15" height="15" fill="#CE0003"/>
<rect x="465" y="195" width="15" height="15" fill="#CE0003"/>
<rect x="255" y="180" width="15" height="15" fill="#CE0003"/>
<rect x="450" y="180" width="15" height="15" fill="#CE0003"/>
<rect x="240" y="180" width="15" height="15" fill="#CE0003"/>
<rect x="435" y="180" width="15" height="15" fill="#CE0003"/>
<rect x="225" y="194" width="15" height="15" fill="#CE0003"/>
<rect x="420" y="194" width="15" height="15" fill="#CE0003"/>
<rect x="210" y="210" width="15" height="15" fill="#CE0003"/>
<rect x="405" y="210" width="15" height="15" fill="#CE0003"/>
<rect x="210" y="224" width="15" height="15" fill="#CE0003"/>
<rect x="405" y="224" width="15" height="15" fill="#CE0003"/>
<rect x="225" y="239" width="15" height="15" fill="#CE0003"/>
<rect x="420" y="239" width="15" height="15" fill="#CE0003"/>
<rect x="240" y="254" width="15" height="15" fill="#CE0003"/>
<rect x="435" y="254" width="15" height="15" fill="#CE0003"/>
<rect x="255" y="269" width="15" height="15" fill="#CE0003"/>
<rect x="450" y="269" width="15" height="15" fill="#CE0003"/>
<rect x="270" y="284" width="15" height="15" fill="#CE0003"/>
<rect x="465" y="284" width="15" height="15" fill="#CE0003"/>
<rect x="285" y="299" width="15" height="15" fill="#CE0003"/>
<rect x="480" y="299" width="15" height="15" fill="#CE0003"/>
<rect x="300" y="284" width="15" height="15" fill="#CE0003"/>
<rect x="495" y="284" width="15" height="15" fill="#CE0003"/>
<rect x="315" y="269" width="15" height="15" fill="#CE0003"/>
<rect x="510" y="269" width="15" height="15" fill="#CE0003"/>
<rect x="330" y="254" width="15" height="15" fill="#CE0003"/>
<rect x="525" y="254" width="15" height="15" fill="#CE0003"/>
<rect x="345" y="239" width="15" height="15" fill="#CE0003"/>
<rect x="540" y="239" width="15" height="15" fill="#CE0003"/>
<rect x="360" y="224" width="15" height="15" fill="#CE0003"/>
<rect x="555" y="224" width="15" height="15" fill="#CE0003"/>
<rect x="360" y="210" width="15" height="15" fill="#CE0003"/>
<rect x="555" y="210" width="15" height="15" fill="#CE0003"/>
<rect x="345" y="194" width="15" height="15" fill="#CE0003"/>
<rect x="540" y="194" width="15" height="15" fill="#CE0003"/>
<rect x="330" y="179" width="15" height="15" fill="#CE0003"/>
<rect x="525" y="179" width="15" height="15" fill="#CE0003"/>
<rect x="315" y="179" width="15" height="15" fill="#CE0003"/>
<rect x="510" y="179" width="15" height="15" fill="#CE0003"/>
<rect x="300" y="194" width="15" height="15" fill="#CE0003"/>
<rect x="495" y="194" width="15" height="15" fill="#CE0003"/>
<rect x="285" y="210" width="15" height="15" fill="#CE0003"/>
<rect x="480" y="210" width="15" height="15" fill="#CE0003"/>
<rect x="255" y="195" width="15" height="15" fill="#FF0004"/>
<rect x="240" y="195" width="15" height="15" fill="#FF0004"/>
<rect x="225" y="209" width="15" height="15" fill="#FF0004"/>
<rect x="255" y="209" width="15" height="15" fill="#E2E2E2"/>
<rect x="450" y="209" width="15" height="15" fill="#E2E2E2"/>
<rect x="240" y="224" width="15" height="15" fill="#E2E2E2"/>
<rect x="435" y="224" width="15" height="15" fill="#E2E2E2"/>
<rect x="240" y="209" width="15" height="15" fill="#FF0004"/>
<rect x="270" y="210" width="15" height="15" fill="#FF0004"/>
<rect x="270" y="224" width="15" height="15" fill="#FF0004"/>
<rect x="270" y="239" width="15" height="15" fill="#FF0004"/>
<rect x="255" y="239" width="15" height="15" fill="#FF0004"/>
<rect x="255" y="224" width="15" height="15" fill="#FF0004"/>
<rect x="240" y="239" width="15" height="15" fill="#FF0004"/>
<rect x="225" y="224" width="15" height="15" fill="#FF0004"/>
<rect x="285" y="284" width="15" height="15" fill="#FF0004"/>
<rect x="285" y="269" width="15" height="15" fill="#FF0004"/>
<rect x="270" y="269" width="15" height="15" fill="#FF0004"/>
<rect x="270" y="299" width="15" height="15" fill="white"/>
<rect x="465" y="299" width="15" height="15" fill="white"/>
<rect x="255" y="284" width="15" height="15" fill="white"/>
<rect x="450" y="284" width="15" height="15" fill="white"/>
<rect x="285" y="195" width="15" height="15" fill="white"/>
<rect x="480" y="195" width="15" height="15" fill="white"/>
<rect x="240" y="269" width="15" height="15" fill="white"/>
<rect x="435" y="269" width="15" height="15" fill="white"/>
<rect x="225" y="254" width="15" height="15" fill="white"/>
<rect x="420" y="254" width="15" height="15" fill="white"/>
<rect x="210" y="239" width="15" height="15" fill="white"/>
<rect x="405" y="239" width="15" height="15" fill="white"/>
<rect x="195" y="224" width="15" height="15" fill="white"/>
<rect x="390" y="224" width="15" height="15" fill="white"/>
<rect x="195" y="210" width="15" height="15" fill="white"/>
<rect x="390" y="210" width="15" height="15" fill="white"/>
<rect x="210" y="195" width="15" height="15" fill="white"/>
<rect x="405" y="195" width="15" height="15" fill="white"/>
<rect x="225" y="180" width="15" height="15" fill="white"/>
<rect x="420" y="180" width="15" height="15" fill="white"/>
<rect x="300" y="179" width="15" height="15" fill="white"/>
<rect x="495" y="179" width="15" height="15" fill="white"/>
</svg>
